<?xml version="1.0" encoding="UTF-8"?>
<svg id="Layer_1" data-name="Layer 1" xmlns="http://www.w3.org/2000/svg" viewBox="0 0 813.71 356.57">
  <defs>
    <style>
      .cls-1 {
        fill: #010002;
      }

      .cls-2 {
        fill: #fff;
      }

      .cls-3 {
        fill: #752ceb;
      }
    </style>
  </defs>
  <rect class="cls-1" x="30.19" y="26.93" width="753.33" height="302.7" rx="51.29" ry="51.29" transform="translate(813.71 356.57) rotate(180)"/>
  <g>
    <path class="cls-2" d="M112.84,213.67c0,8.7,7.03,15.73,15.71,15.73s15.73-7.03,15.73-15.73v-15.71h31.47v15.71c0,5.51-.95,10.82-2.69,15.73-2.37,6.71-6.23,12.73-11.14,17.64-4.91,4.91-10.93,8.77-17.64,11.14-4.91,1.74-10.23,2.69-15.73,2.69s-10.8-.95-15.71-2.69c-13.4-4.72-24.03-15.35-28.78-28.78-1.74-4.91-2.69-10.23-2.69-15.73v-47.18h-15.73v-31.47h15.73v-31.47h31.47v31.47h62.91v31.47h-62.91v47.18Z"/>
    <path class="cls-2" d="M613.43,166.49v47.18c0,8.7,7.03,15.73,15.71,15.73s15.73-7.03,15.73-15.73v-15.71h31.47v15.71c0,5.51-.95,10.82-2.69,15.73-2.37,6.71-6.23,12.73-11.14,17.64-4.91,4.91-10.93,8.77-17.64,11.14-4.91,1.74-10.23,2.69-15.73,2.69s-10.8-.95-15.71-2.69c-13.4-4.72-24.03-15.35-28.78-28.78-1.74-4.91-2.69-10.23-2.69-15.73v-110.11h31.47v31.47h62.91v31.47h-62.91Z"/>
    <path class="cls-2" d="M748.08,135.02v31.47c-17.39,0-31.47,14.08-31.47,31.47v62.91h-31.47v-62.91c0-11.46,3.07-22.21,8.45-31.47,5.51-9.55,13.47-17.51,23.02-23.02,9.25-5.38,20.01-8.45,31.47-8.45Z"/>
    <polygon class="cls-2" points="435.15 229.85 466.18 260.87 422.11 260.87 403.69 242.45 390.62 229.4 381.71 220.47 381.43 220.21 372.05 210.83 372.05 259.2 340.88 259.2 340.88 107.13 372.05 107.13 372.05 166.49 371.8 166.49 372.05 166.74 372.05 186.08 372.24 185.89 381.73 176.42 391.64 166.49 403.69 154.44 423.1 135.02 466.62 135.02 435.15 166.49 403.69 197.96 403.26 197.96 403.47 198.17 403.69 198.38 403.69 198.49 403.75 198.44 435.15 229.85"/>
    <path class="cls-2" d="M532.48,220.21c-5.7,5.7-13.55,9.19-22.23,9.19h-.02c-8.7,0-16.54-3.49-22.23-9.19-5.7-5.7-9.21-13.57-9.21-22.26h94.38c0-11.48-3.05-22.19-8.41-31.45h-.02v-.02c-2.75-4.76-6.1-9.13-9.99-13.02v-.02c-3.88-3.88-8.26-7.22-13.04-10-8.94-5.21-19.31-8.24-30.37-8.41-.36-.02-.72-.02-1.08-.02h-.02v.02h-1.06c-11.05.17-21.43,3.22-30.39,8.41-4.79,2.73-9.17,6.12-13.04,10v.02c-3.9,3.9-7.24,8.26-9.99,13.02v.02h-.02c-5.34,9.25-8.41,19.97-8.41,31.45v.02c0,11.44,3.07,22.17,8.45,31.43v.02c2.73,4.79,6.1,9.17,9.97,13.02,3.88,3.88,8.26,7.26,13.04,9.97,9.25,5.38,19.99,8.45,31.45,8.45h.02c11.46,0,22.21-3.07,31.45-8.43,4.79-2.73,9.17-6.12,13.04-10l-13.04-13.02-9.21-9.21ZM510.23,166.49h.02c7.96,0,15.25,2.96,20.79,7.88h-41.59c5.55-4.91,12.79-7.88,20.77-7.88Z"/>
    <path class="cls-2" d="M332.18,242.45c-3.88,3.88-8.26,7.24-13.04,10-9.23,5.36-19.99,8.43-31.45,8.43h-.02c-11.46,0-22.19-3.07-31.45-8.45-4.79-2.73-9.17-6.1-13.04-9.97-3.88-3.88-7.24-8.26-9.97-13.04-5.38-9.25-8.45-19.99-8.45-31.45v-.02c0-11.46,3.07-22.21,8.43-31.45,2.75-4.79,6.12-9.17,10-13.04,3.88-3.88,8.26-7.26,13.04-10,9.25-5.36,19.99-8.43,31.45-8.43h.02c11.46,0,22.21,3.05,31.45,8.43,4.79,2.75,9.17,6.12,13.04,10l-13.04,13.04-9.21,9.21c-5.7-5.7-13.55-9.21-22.23-9.21h-.02c-8.7,0-16.54,3.52-22.23,9.21-5.7,5.7-9.21,13.55-9.21,22.23s3.52,16.56,9.21,22.26c5.7,5.7,13.53,9.21,22.23,9.21h.02c8.68,0,16.54-3.52,22.23-9.21l22.26,22.26Z"/>
    <g>
      <rect class="cls-2" x="184.55" y="135.02" width="31.47" height="125.85"/>
      <circle class="cls-3" cx="200.33" cy="111.39" r="15.69"/>
    </g>
  </g>
</svg>